<svg xmlns="http://www.w3.org/2000/svg" width="132" height="38" viewBox="0,0,132,38"><rect width="100%" height="100%" fill="#fff"/><path d="M18 16 C58 24,46 17,128 3" stroke="#86b5e3" fill="none"/><path fill="#e23ae2" d="M22.54 22.94L22.56 22.96L22.65 23.04Q22.63 21.99 22.07 21.37L22.09 21.39L22.13 21.43Q21.48 20.72 20.50 20.74L20.62 20.86L20.54 20.78Q19.01 20.88 18.44 22.32L18.33 22.21L18.34 22.22Q18.20 22.80 18.17 23.27L18.14 23.23L18.18 23.28Q18.09 26.62 17.47 29.56L17.46 29.55L17.48 29.58Q16.35 29.95 15.09 30.62L15.13 30.67L15.10 30.64Q16.68 25.94 16.50 20.98L16.42 20.90L16.48 20.96Q16.20 15.87 14.47 11.25L14.42 11.19L14.43 11.21Q15.77 12.23 17.14 12.70L17.15 12.71L16.97 12.53Q18.12 16.62 18.25 20.60L18.14 20.49L18.23 20.59Q19.13 19.14 20.97 19.19L20.90 19.13L20.99 19.21Q24.37 19.21 24.45 22.86L24.50 22.90L24.42 22.82Q24.67 26.84 25.60 29.99L25.52 29.92L25.47 29.87Q24.19 29.29 23.01 29.16L23.13 29.28L22.98 29.14Q22.76 27.05 22.68 23.08ZM22.77 29.36L22.81 29.40L22.78 29.37Q23.49 29.46 24.24 29.64L24.26 29.66L24.29 29.70Q24.39 29.87 24.75 31.21L24.60 31.07L24.64 31.10Q26.68 31.78 28.05 32.76L28.08 32.79L28.08 32.79Q26.26 28.88 25.90 24.59L25.77 24.46L25.91 24.60Q25.67 22.06 24.71 21.00L24.66 20.95L24.76 21.04Q24.74 20.98 24.30 20.67L24.32 20.69L24.15 20.51Q24.14 20.33 23.70 19.81L23.61 19.72L23.68 19.74L23.61 19.66Q23.05 19.10 20.93 18.92L21.03 19.03L20.99 18.98Q20.39 18.87 19.43 19.10L19.53 19.21L19.41 19.08Q19.29 15.81 19.05 14.10L19.21 14.25L19.18 14.23Q18.58 14.06 17.57 13.86L17.50 13.79L17.51 13.80Q17.56 13.46 17.38 12.45L17.40 12.48L17.32 12.39Q15.29 11.71 14.03 10.65L13.95 10.57L14.05 10.68Q16.11 15.57 16.29 20.87L16.14 20.71L16.30 20.88Q16.37 26.03 14.63 31.02L14.64 31.03L14.67 31.06Q15.30 30.66 16.08 30.32L16.08 30.32L15.67 31.95L15.59 31.87Q17.62 30.88 18.97 30.75L18.95 30.74L19.04 30.82Q19.45 27.18 19.58 24.50L19.62 24.54L19.56 24.48Q19.61 23.21 20.93 22.46L20.94 22.47L21.01 22.54Q21.24 22.25 21.60 22.28L21.70 22.38L21.68 22.36Q21.81 22.39 22.05 22.42L22.01 22.38L22.36 22.50L22.27 22.40Q22.30 22.70 22.38 23.01L22.45 23.08L22.34 22.96Q22.56 27.16 22.89 29.49Z"/><path fill="#8d73dd" d="M104.41 15.09L104.51 15.19L104.56 15.24Q105.14 18.12 105.25 20.55L105.22 20.52L105.17 20.48Q105.94 20.55 106.67 20.55L106.60 20.49L108.10 20.48L108.15 20.54Q108.82 20.48 109.42 19.53L109.51 19.62L109.40 19.52Q109.88 18.70 109.96 17.90L110.02 17.96L109.92 17.86Q110.26 15.90 107.39 15.56L107.45 15.62L107.37 15.55Q106.27 15.55 104.49 15.17ZM105.19 22.35L105.19 22.36L105.25 22.41Q105.20 26.63 104.43 29.62L104.33 29.53L104.36 29.56Q103.41 29.87 101.84 30.60L101.84 30.60L101.84 30.60Q103.34 25.98 103.16 21.05L103.31 21.20L103.18 21.07Q102.98 16.06 101.09 11.70L101.10 11.70L101.21 11.81Q103.86 13.53 108.09 13.53L108.21 13.64L108.10 13.54Q112.25 13.57 112.35 15.93L112.37 15.94L112.49 16.06Q112.37 17.54 111.69 19.35L111.79 19.45L111.87 19.52Q111.55 20.24 110.90 21.07L110.89 21.05L110.81 20.97Q109.92 22.07 108.19 22.25L108.33 22.39L108.20 22.26Q106.74 22.36 105.22 22.38ZM109.32 23.85L109.32 23.84L109.37 23.89Q112.08 23.94 112.93 20.69L113.07 20.83L112.95 20.71Q113.59 18.23 113.49 16.86L113.64 17.01L113.52 16.89Q113.58 16.00 113.07 15.33L113.04 15.30L112.87 15.13Q112.70 14.96 112.37 14.81L112.41 14.85L112.36 14.80Q112.31 14.65 111.90 14.13L112.04 14.28L111.92 14.15Q110.86 13.25 108.18 13.25L108.16 13.24L108.15 13.22Q103.48 13.23 100.61 11.09L100.72 11.19L100.79 11.26Q102.79 15.93 102.97 20.99L103.09 21.11L102.93 20.95Q103.18 26.21 101.37 31.01L101.35 30.99L101.40 31.04Q102.07 30.54 102.74 30.29L102.89 30.44L102.51 31.09L102.52 31.10Q102.35 31.45 102.17 31.83L102.16 31.83L102.16 31.82Q103.93 31.24 105.89 30.88L105.81 30.80L105.96 30.96Q106.52 27.20 106.58 24.00L106.40 23.82L106.43 23.85Q107.33 23.95 108.00 23.95L107.81 23.76L107.95 23.90Q108.78 23.82 109.32 23.85ZM108.69 17.13L108.73 17.17L108.80 17.23Q109.14 17.23 109.81 17.39L109.65 17.23L109.63 17.21Q109.74 17.39 109.76 17.60L109.75 17.58L109.74 17.57Q109.92 17.91 109.87 18.09L109.89 18.12L109.72 17.95Q109.67 18.80 109.18 19.40L109.25 19.46L109.15 19.37Q108.80 20.13 108.11 20.26L108.05 20.21L108.15 20.30Q107.62 20.27 106.51 20.27L106.44 20.20L106.49 20.24Q106.44 18.67 106.29 17.07L106.31 17.10L107.51 17.16L107.48 17.13Q108.21 17.29 108.81 17.24Z"/><path fill="#e3a18b" d="M37.18 33.97L37.09 33.88L37.21 34.01Q36.63 34.20 35.34 34.41L35.20 34.27L35.24 34.31Q36.16 32.89 36.86 32.01L36.91 32.06L36.85 31.99Q37.99 32.15 38.09 32.15L38.15 32.21L38.16 32.22Q38.23 32.14 38.59 32.06L38.78 32.25L38.78 32.24Q39.19 32.14 39.32 32.14L39.28 32.10L39.26 32.08Q41.01 31.92 40.96 30.45L41.01 30.49L40.99 30.48Q40.84 29.34 40.76 25.11L40.83 25.18L40.82 25.17Q40.84 22.81 40.89 19.99L40.79 19.90L41.83 19.84L41.89 19.91Q42.30 19.80 42.76 19.64L42.67 19.55L42.65 19.53Q42.49 22.53 42.52 25.50L42.62 25.59L42.65 25.62Q42.72 28.65 43.08 31.62L42.91 31.44L43.05 31.58Q43.08 31.76 43.08 31.94L42.98 31.85L43.00 31.87Q42.97 32.95 41.84 33.21L41.97 33.34L41.95 33.32Q39.73 33.48 37.12 33.92ZM41.75 17.52L40.37 15.47L40.31 15.40Q41.02 14.46 42.26 12.58L42.18 12.50L42.31 12.63Q42.71 13.18 43.61 14.42L43.66 14.48L41.75 17.52ZM43.73 35.52L43.89 35.67L43.88 35.67Q44.23 35.68 44.74 35.44L44.67 35.37L44.64 35.34Q44.87 34.87 44.87 34.56L44.96 34.65L44.87 34.57Q44.99 34.45 44.91 34.04L44.78 33.90L44.87 33.99Q43.84 29.53 43.84 24.16L43.91 24.23L43.84 24.15Q44.02 22.40 44.12 20.43L43.95 20.27L44.11 20.42Q43.76 20.56 42.98 20.77L42.98 20.77L42.96 20.75Q42.98 20.43 43.01 20.07L42.83 19.89L43.05 19.31L43.02 19.28Q41.92 19.78 40.71 19.81L40.59 19.69L40.57 19.67Q40.59 22.67 40.62 25.09L40.51 24.98L40.63 30.35L40.65 30.37Q40.79 31.80 39.32 31.88L39.25 31.81L39.20 31.77Q39.20 31.91 38.85 31.95L38.87 31.97L38.71 31.81Q38.43 31.92 38.25 31.92L38.33 32.00L38.29 31.96Q37.94 31.92 36.88 31.64L36.95 31.70L36.78 31.54Q36.52 32.00 35.77 33.14L35.83 33.20L34.70 34.68L34.66 34.64Q35.44 34.69 36.55 34.43L36.53 34.41L36.13 34.81L35.74 35.22L35.85 35.34Q37.27 35.10 38.17 35.15L38.29 35.27L38.32 35.30Q39.86 35.39 43.89 35.67ZM41.80 18.09L41.67 17.95L42.01 17.70L42.08 17.77Q42.15 17.90 42.80 18.98L42.83 19.01L42.99 19.17Q43.91 16.94 44.97 14.85L45.05 14.93L45.07 14.95Q44.39 13.86 43.74 12.98L43.71 12.95L43.59 12.83Q43.57 13.09 43.34 13.45L43.34 13.46L43.40 13.51Q42.98 12.93 42.31 12.06L42.30 12.05L42.27 12.02Q41.48 13.11 39.90 15.39L39.94 15.42L39.97 15.45Q40.63 16.32 41.79 18.08Z"/><path fill="#d37ff0" d="M81.51 15.10L81.52 15.11L81.45 15.04Q82.19 18.05 82.29 20.22L82.43 20.36L82.32 20.25Q82.66 20.28 85.64 20.36L85.70 20.42L85.69 20.42Q87.40 20.42 87.66 18.07L87.73 18.14L87.56 17.97Q87.74 16.83 87.12 16.21L87.15 16.24L87.21 16.30Q86.25 15.60 84.91 15.50L84.88 15.47L84.92 15.51Q82.79 15.42 81.52 15.11ZM82.34 21.51L82.47 21.64L82.40 21.57Q82.50 25.62 81.28 29.65L81.31 29.67L81.41 29.78Q80.54 29.97 78.79 30.66L78.73 30.60L78.67 30.55Q80.60 26.14 80.36 21.08L80.36 21.08L80.46 21.18Q80.28 16.22 78.03 11.80L77.91 11.68L77.86 11.63Q81.18 13.55 85.90 13.55L86.06 13.71L86.05 13.70Q89.76 13.58 89.94 15.98L90.01 16.05L89.90 15.94Q90.07 16.47 90.02 16.89L89.90 16.77L89.85 17.54L90.01 17.70Q89.43 20.36 87.99 21.52L87.93 21.47L87.89 21.43Q87.44 21.99 86.75 21.99L86.60 21.84L84.89 21.89L84.89 21.88Q88.70 26.81 91.77 29.91L91.88 30.01L91.82 29.96Q90.27 29.38 88.28 29.15L88.39 29.26L88.23 29.10Q85.79 26.53 82.46 21.62ZM88.13 29.34L88.14 29.35L88.51 29.51L89.36 30.36L89.24 30.24Q89.65 30.63 90.09 31.04L90.04 30.99L90.08 31.03Q92.51 31.47 94.94 32.73L95.02 32.82L94.93 32.73Q90.19 28.12 86.53 23.42L86.50 23.39L87.78 23.48L87.73 23.43Q89.77 23.38 90.68 20.31L90.75 20.38L90.77 20.40Q91.20 18.87 91.20 17.03L91.26 17.09L91.31 17.14Q91.18 15.46 90.01 15.02L90.03 15.04L90.11 15.12Q90.08 14.91 89.69 14.44L89.59 14.34L89.67 14.42Q88.46 13.37 85.98 13.32L86.06 13.39L85.92 13.26Q80.70 13.28 77.52 11.24L77.39 11.10L77.42 11.14Q80.08 15.89 80.31 21.10L80.29 21.08L80.24 21.03Q80.55 26.51 78.43 31.16L78.43 31.16L78.42 31.15Q79.13 30.62 79.68 30.42L79.66 30.40L79.11 32.07L79.12 32.08Q80.93 31.33 82.74 31.00L82.70 30.96L82.76 31.02Q83.60 27.52 83.73 23.98L83.71 23.97L83.71 23.96Q86.14 27.37 88.28 29.49ZM87.32 17.21L87.46 17.35L87.46 17.35Q87.31 17.35 87.31 17.59L87.49 17.77L87.33 17.99L87.32 17.99Q87.33 18.75 86.87 19.40L86.94 19.47L86.98 19.50Q86.45 19.91 85.83 20.03L85.99 20.20L85.87 20.07Q85.80 20.19 84.71 20.21L84.71 20.21L84.62 20.12Q84.34 20.25 83.77 20.17L83.68 20.08L83.72 20.13Q83.56 19.01 83.33 16.94L83.40 17.01L83.38 16.99Q84.28 17.06 84.74 17.06L84.89 17.21L84.90 17.22Q86.02 17.10 87.34 17.23Z"/><path fill="#e07fc8" d="M58.85 33.98L58.86 34.00L58.78 33.91Q58.28 34.19 56.99 34.40L56.99 34.39L56.84 34.25Q57.80 32.86 58.50 31.98L58.42 31.90L58.45 31.93Q59.64 32.14 59.75 32.14L59.71 32.10L59.73 32.13Q60.00 32.24 60.36 32.16L60.36 32.15L60.39 32.19Q60.73 32.02 60.86 32.02L61.04 32.19L61.03 32.18Q62.59 31.83 62.54 30.36L62.71 30.53L62.58 30.40Q62.56 29.40 62.48 25.16L62.47 25.15L62.56 25.24Q62.45 22.76 62.51 19.94L62.52 19.95L63.46 19.81L63.58 19.93Q63.93 19.77 64.40 19.61L64.32 19.54L64.31 19.52Q64.19 22.56 64.22 25.53L64.18 25.49L64.23 25.54Q64.30 28.55 64.66 31.53L64.57 31.43L64.67 31.54Q64.62 31.64 64.62 31.83L64.72 31.92L64.72 31.92Q64.73 33.04 63.59 33.30L63.53 33.24L63.53 33.24Q61.50 33.58 58.89 34.02ZM63.42 17.53L62.08 15.51L62.04 15.47Q62.77 14.55 64.01 12.66L63.86 12.51L64.04 12.69Q64.36 13.17 65.26 14.41L65.35 14.50L63.38 17.49ZM65.56 35.68L65.49 35.61L65.51 35.63Q65.84 35.62 66.36 35.39L66.43 35.46L66.40 35.44Q66.55 34.88 66.55 34.57L66.56 34.59L66.70 34.73Q66.48 34.27 66.40 33.86L66.41 33.87L66.50 33.96Q65.54 29.56 65.54 24.19L65.67 24.32L65.66 24.31Q65.59 22.30 65.69 20.34L65.60 20.25L65.72 20.37Q65.28 20.42 64.50 20.62L64.63 20.75L64.49 20.61Q64.52 20.30 64.54 19.94L64.57 19.96L64.72 19.31L64.59 19.19Q63.49 19.68 62.27 19.71L62.23 19.66L62.21 19.64Q62.21 22.61 62.23 25.04L62.19 25.00L62.42 30.47L62.35 30.40Q62.42 31.77 60.95 31.84L60.98 31.87L60.92 31.81Q60.81 31.86 60.46 31.89L60.48 31.92L60.35 31.79Q60.14 31.96 59.96 31.96L59.84 31.84L59.94 31.94Q59.61 31.92 58.55 31.64L58.58 31.67L58.55 31.64Q58.18 32.00 57.44 33.13L57.43 33.13L56.49 34.80L56.49 34.80Q56.95 34.54 58.06 34.28L58.21 34.42L57.83 34.85L57.51 35.33L57.43 35.25Q59.01 35.18 59.92 35.23L60.00 35.32L59.85 35.16Q61.44 35.30 65.47 35.59ZM63.37 17.99L63.50 18.12L63.75 17.78L63.56 17.58Q63.91 17.99 64.55 19.07L64.58 19.10L64.50 19.02Q65.52 16.88 66.58 14.79L66.67 14.88L66.56 14.78Q65.96 13.76 65.31 12.88L65.32 12.89L65.39 12.95Q65.11 12.97 64.88 13.33L65.00 13.45L64.98 13.43Q64.75 13.04 64.08 12.17L64.05 12.13L64.11 12.19Q63.22 13.19 61.64 15.46L61.73 15.55L61.73 15.55Q62.18 16.21 63.34 17.96Z"/></svg>