<svg xmlns="http://www.w3.org/2000/svg" width="132" height="38" viewBox="0,0,132,38"><rect width="100%" height="100%" fill="#fff"/><path fill="#5ca0e4" d="M43.26 28.98L43.41 29.14L43.29 29.02Q42.01 29.03 40.64 29.16L40.71 29.23L40.69 29.21Q41.09 25.61 41.09 22.32L41.15 22.38L41.11 22.35Q41.10 19.00 40.66 15.46L40.62 15.42L40.67 15.47Q37.56 15.21 35.39 14.07L35.38 14.06L34.95 12.93L34.85 12.83Q34.72 12.49 34.31 11.67L34.41 11.77L34.37 11.73Q37.86 13.59 41.94 13.72L41.90 13.68L41.92 13.70Q45.85 13.76 49.55 12.36L49.52 12.34L49.50 12.32Q49.15 13.42 48.72 14.66L48.70 14.65L48.70 14.64Q46.10 15.37 43.21 15.50L43.23 15.52L43.22 15.52Q43.12 18.96 43.12 22.31L43.22 22.41L43.17 22.37Q43.11 25.66 43.31 29.04ZM50.07 11.95L49.99 11.88L50.07 11.96Q46.08 13.46 41.86 13.33L41.80 13.27L41.90 13.37Q37.27 13.13 33.81 11.11L33.87 11.18L33.79 11.10Q34.45 12.12 35.33 14.34L35.29 14.30L35.23 14.24Q35.74 14.52 36.59 14.90L36.55 14.86L36.57 14.88Q36.63 15.26 36.87 16.29L36.96 16.38L36.95 16.38Q38.51 16.96 40.58 17.11L40.56 17.10L40.64 17.17Q40.74 19.52 40.74 22.08L40.87 22.21L40.89 22.23Q40.89 25.87 40.35 29.51L40.26 29.42L40.36 29.52Q41.45 29.40 41.81 29.40L41.83 29.42L41.75 29.34Q41.70 29.50 41.66 29.95L41.68 29.97L41.84 30.12Q41.66 30.44 41.66 30.67L41.76 30.77L41.81 30.82Q42.59 30.75 43.63 30.80L43.46 30.63L43.50 30.67Q44.26 30.84 45.50 30.94L45.36 30.81L45.37 30.81Q44.67 27.61 44.59 24.09L44.43 23.93L44.57 24.08Q44.50 20.49 44.86 17.15L44.81 17.11L44.75 17.05Q47.47 16.72 49.61 15.89L49.62 15.89L49.69 15.97Q50.14 14.32 50.84 12.93L50.68 12.77L50.69 12.79Q49.76 13.22 49.22 13.43L49.32 13.53L49.28 13.49Q49.58 12.63 49.97 11.86Z"/><path fill="#efef7f" d="M109.32 23.05L109.31 23.04L109.22 22.94Q109.36 22.05 108.80 21.43L108.79 21.42L108.82 21.45Q108.22 20.78 107.23 20.81L107.28 20.85L107.23 20.80Q105.75 20.95 105.18 22.40L105.15 22.37L105.02 22.23Q104.86 22.80 104.83 23.26L104.80 23.23L104.92 23.35Q104.79 26.65 104.17 29.60L104.12 29.55L104.13 29.57Q102.92 29.85 101.66 30.52L101.74 30.61L101.67 30.53Q103.28 25.87 103.10 20.91L103.07 20.88L103.03 20.84Q102.83 15.83 101.10 11.21L101.10 11.21L101.21 11.33Q102.29 12.09 103.66 12.55L103.79 12.69L103.80 12.70Q104.62 16.46 104.75 20.44L104.75 20.44L104.88 20.57Q105.85 19.19 107.68 19.24L107.67 19.23L107.56 19.12Q111.10 19.27 111.17 22.91L111.11 22.85L111.13 22.87Q111.15 26.66 112.08 29.81L112.17 29.90L112.17 29.90Q110.97 29.40 109.78 29.27L109.70 29.18L109.64 29.12Q109.41 27.04 109.33 23.06ZM109.56 29.49L109.42 29.34L109.51 29.44Q110.17 29.47 110.91 29.65L110.93 29.67L111.05 29.79Q111.02 29.83 111.38 31.18L111.34 31.13L111.29 31.08Q113.40 31.83 114.77 32.81L114.68 32.72L114.80 32.84Q112.92 28.87 112.56 24.58L112.58 24.60L112.49 24.51Q112.41 22.14 111.46 21.08L111.27 20.89L111.45 21.07Q111.39 20.96 110.95 20.65L110.99 20.68L110.82 20.52Q110.68 20.19 110.24 19.68L110.29 19.73L110.41 19.80L110.25 19.64Q109.74 19.13 107.63 18.95L107.55 18.87L107.68 19.00Q107.09 18.91 106.14 19.14L106.21 19.22L106.21 19.22Q106.02 15.87 105.79 14.17L105.85 14.23L105.83 14.21Q105.32 14.14 104.32 13.94L104.21 13.83L104.18 13.80Q104.22 13.45 104.04 12.44L103.95 12.36L104.07 12.48Q101.91 11.66 100.64 10.60L100.76 10.72L100.72 10.68Q102.59 15.39 102.77 20.69L102.95 20.86L102.89 20.80Q103.03 26.04 101.30 31.02L101.33 31.05L101.28 30.99Q102.00 30.68 102.77 30.35L102.69 30.26L102.22 31.84L102.35 31.96Q104.46 31.05 105.80 30.92L105.71 30.83L105.66 30.78Q106.20 27.26 106.33 24.57L106.18 24.43L106.17 24.42Q106.32 23.25 107.63 22.50L107.63 22.49L107.56 22.43Q107.93 22.28 108.29 22.30L108.24 22.25L108.42 22.43Q108.47 22.38 108.70 22.41L108.72 22.42L108.98 22.45L108.94 22.41Q109.06 22.78 109.13 23.09L109.00 22.96L109.01 22.97Q109.24 27.18 109.58 29.51Z"/><path d="M19 24 C77 21,82 17,123 27" stroke="#74ade6" fill="none"/><path fill="#e17ec8" d="M84.57 21.73L84.63 21.78L84.68 21.83Q83.46 21.78 82.62 22.74L82.64 22.76L82.54 22.66Q81.75 23.68 81.62 24.97L81.57 24.92L81.57 24.92Q81.46 26.36 82.19 27.02L82.12 26.94L82.15 26.97Q82.82 27.56 84.24 27.49L84.27 27.52L84.26 27.51Q85.76 27.48 86.51 27.01L86.40 26.91L86.41 26.92Q87.34 26.33 87.34 25.27L87.26 25.19L87.30 25.22Q87.37 25.03 87.31 24.78L87.20 24.66L87.21 24.67Q87.34 23.61 86.59 22.70L86.56 22.66L86.44 22.54Q85.84 21.77 84.70 21.85ZM84.29 29.27L84.45 29.43L84.27 29.25Q81.35 29.30 80.39 28.78L80.42 28.81L80.48 28.87Q79.74 28.31 79.61 27.15L79.54 27.08L79.56 27.10Q79.54 26.63 79.56 26.14L79.59 26.17L79.69 26.27Q79.78 25.61 79.78 25.30L79.69 25.21L79.71 25.23Q80.01 23.28 80.11 22.82L80.09 22.79L80.16 22.87Q80.47 21.54 81.03 20.59L80.95 20.50L81.04 20.60Q82.87 17.64 86.90 13.33L86.84 13.27L86.72 13.16Q88.58 12.99 90.07 12.45L90.15 12.53L90.11 12.48Q85.44 17.52 83.27 20.39L83.39 20.52L83.37 20.49Q83.98 20.09 84.85 20.09L84.82 20.06L84.94 20.18Q87.09 20.08 88.13 21.40L88.12 21.40L88.16 21.43Q89.09 22.57 89.32 24.97L89.21 24.87L89.29 24.94Q89.36 25.46 89.36 25.87L89.28 25.78L89.35 25.85Q89.27 27.90 87.77 28.62L87.76 28.60L87.72 28.56Q87.07 29.16 84.44 29.41ZM86.00 31.06L85.81 30.87L85.88 30.94Q86.76 30.91 88.10 30.96L88.08 30.94L88.20 31.06Q89.20 31.00 90.25 30.51L90.31 30.56L90.22 30.47Q91.02 29.98 91.02 28.77L91.09 28.83L91.07 28.82Q90.96 28.37 90.84 27.70L91.00 27.85L91.02 27.87Q90.83 27.13 90.83 26.82L90.88 26.87L90.78 26.77Q90.17 23.55 89.08 22.26L89.18 22.35L89.17 22.34Q89.10 22.25 89.00 22.09L88.91 22.00L88.73 21.87L88.68 21.85L88.64 21.82Q88.48 21.55 88.07 20.91L88.08 20.91L88.13 20.97Q87.50 20.31 86.16 20.00L86.16 20.00L86.12 19.97Q87.02 18.95 89.03 16.44L88.97 16.39L91.80 12.75L91.92 12.87Q90.75 13.36 89.12 13.87L89.19 13.94L89.15 13.91Q89.68 13.14 90.89 11.79L90.94 11.84L90.97 11.87Q89.36 12.61 86.72 13.00L86.68 12.95L86.73 13.00Q82.87 17.02 80.85 20.38L80.91 20.44L80.87 20.40Q79.70 21.96 79.31 26.20L79.40 26.29L79.35 26.24Q79.36 26.69 79.41 27.33L79.39 27.31L79.48 27.40Q79.38 28.44 80.13 29.06L80.11 29.04L80.25 29.18Q80.51 29.29 80.49 29.31L80.45 29.28L80.37 29.20Q80.64 29.83 81.19 30.12L81.16 30.09L81.21 30.14Q82.17 30.58 83.48 30.71L83.54 30.77L83.50 30.73Q83.48 30.71 85.86 30.91ZM85.83 23.42L85.80 23.40L85.84 23.43Q86.23 23.36 86.88 23.69L86.77 23.59L86.75 23.56Q87.11 24.34 87.11 24.78L87.09 24.76L87.01 24.68Q87.09 25.89 86.44 26.56L86.51 26.63L86.41 26.53Q85.86 27.20 84.44 27.41L84.44 27.40L84.45 27.41Q83.41 27.35 83.05 27.17L82.99 27.11L82.96 27.09Q82.94 26.88 82.94 26.68L82.83 26.57L82.82 26.56Q82.79 24.46 84.78 23.59L84.70 23.50L84.69 23.49Q85.28 23.34 85.80 23.39Z"/><path fill="#75cdea" d="M65.66 20.51L65.66 20.52L65.54 20.40Q66.22 20.53 67.18 20.43L67.17 20.42L67.19 20.45Q67.08 20.80 67.08 21.24L67.19 21.35L67.17 22.18L67.03 22.04Q66.56 22.14 65.99 22.19L65.98 22.17L65.99 22.19Q65.31 22.10 64.74 22.07L64.88 22.21L64.77 22.10Q62.83 26.29 60.51 29.41L60.55 29.45L60.58 29.49Q58.84 29.89 57.96 30.30L57.97 30.31L57.98 30.32Q60.76 26.43 62.82 22.17L62.81 22.16L61.04 22.17L60.99 22.12Q61.01 21.24 60.93 20.33L61.04 20.44L60.91 20.31Q62.35 20.56 63.75 20.56L63.72 20.53L64.90 17.92L65.04 18.06Q65.71 16.76 66.54 15.68L66.35 15.49L66.39 15.54Q65.40 15.71 64.32 15.71L64.35 15.74L64.31 15.71Q60.14 15.66 57.58 14.16L57.63 14.21L57.22 13.08L57.15 13.01Q56.89 12.41 56.63 11.82L56.67 11.86L56.74 11.93Q59.73 13.75 63.60 13.91L63.44 13.75L63.42 13.72Q66.94 13.92 70.43 12.57L70.47 12.61L70.40 12.55Q70.31 12.86 69.97 13.46L69.97 13.45L70.10 13.59Q67.57 16.74 65.63 20.48ZM71.15 14.49L71.07 14.40L71.77 13.06L71.68 12.97Q71.12 13.40 69.99 13.89L70.06 13.96L70.11 13.67L70.04 13.60Q70.18 13.57 70.26 13.49L70.22 13.45L70.33 13.56Q70.51 13.01 71.00 12.11L71.06 12.17L70.99 12.10Q67.32 13.60 63.42 13.45L63.43 13.45L63.47 13.50Q59.44 13.36 56.21 11.34L56.15 11.29L56.23 11.37Q56.88 12.59 57.45 14.39L57.47 14.42L57.36 14.31Q58.30 14.93 58.84 15.14L58.65 14.95L58.67 14.97Q58.81 15.24 59.12 16.51L59.07 16.46L59.15 16.54Q61.27 17.37 65.02 17.26L65.01 17.26L65.11 17.35Q64.83 17.67 63.49 20.22L63.52 20.25L63.53 20.27Q62.02 20.15 60.68 20.02L60.75 20.10L60.80 20.15Q60.84 20.70 60.84 21.29L60.86 21.32L60.88 22.50L62.04 22.52L61.99 23.43L61.89 23.33Q59.31 28.42 57.42 30.85L57.42 30.84L57.45 30.88Q58.57 30.39 59.68 30.05L59.65 30.03L59.52 29.90Q59.13 30.59 58.20 31.75L58.24 31.80L58.20 31.76Q60.32 30.98 61.98 30.83L61.96 30.81L61.96 30.82Q63.94 28.25 66.06 23.65L66.18 23.77L68.53 23.92L68.48 23.88Q68.48 23.31 68.48 22.69L68.35 22.56L68.41 21.40L68.48 21.48Q68.17 21.35 67.80 21.37L67.74 21.31L67.75 21.32Q67.54 21.51 67.35 21.51L67.36 21.52L67.25 21.40Q67.22 21.30 67.25 21.20L67.30 21.25L67.25 21.02L67.29 21.06Q69.06 17.64 71.16 14.49Z"/><path fill="#e65579" d="M17.03 24.40L17.10 24.47L17.05 24.42Q19.05 24.07 21.22 24.14L21.24 24.16L21.30 24.23Q21.26 22.48 21.26 20.86L21.32 20.91L21.31 20.91Q21.36 19.27 21.49 17.54L21.48 17.53L21.33 17.39Q20.49 18.54 16.95 24.32ZM23.71 29.35L23.74 29.38L23.76 29.39Q22.59 29.15 21.37 29.10L21.45 29.18L21.38 29.11Q21.17 27.43 21.10 25.75L21.15 25.81L21.15 25.81Q17.63 25.77 14.42 26.73L14.38 26.68L14.33 26.63Q14.46 26.35 14.59 25.68L14.62 25.71L14.59 25.68Q15.84 23.57 18.27 19.31L18.22 19.26L18.30 19.34Q20.13 15.90 22.45 13.26L22.47 13.28L22.41 13.22Q23.07 13.16 24.21 12.98L24.29 13.06L24.18 12.95Q23.04 17.47 23.04 22.25L22.96 22.16L23.03 22.23Q22.98 23.19 23.03 24.20L23.02 24.19L23.78 24.15L23.92 24.29Q24.37 24.35 24.78 24.42L24.76 24.41L24.61 24.26Q24.76 25.00 24.94 26.32L24.95 26.33L25.05 26.43Q24.13 26.16 23.13 26.03L23.15 26.05L23.11 26.01Q23.27 27.38 23.73 29.37ZM24.88 24.08L24.92 24.12L24.84 24.04Q24.81 24.09 24.68 24.09L24.53 23.95L24.32 24.00L24.40 24.07Q24.27 23.02 24.27 22.06L24.24 22.02L24.36 22.15Q24.36 17.81 25.75 13.72L25.77 13.74L25.77 13.74Q25.14 13.81 24.16 14.07L24.21 14.12L24.20 14.11Q24.43 13.66 24.74 12.71L24.67 12.64L24.64 12.61Q23.79 12.89 22.39 13.05L22.45 13.11L22.28 12.94Q19.62 15.88 16.08 22.23L16.17 22.33L17.53 19.78L17.61 19.87Q17.32 20.56 17.14 20.94L17.11 20.91L14.10 27.05L14.14 27.09Q14.47 26.88 15.25 26.62L15.41 26.78L15.32 26.95L15.16 26.79Q15.12 27.30 14.92 28.15L15.01 28.25L14.99 28.23Q17.70 27.24 20.98 27.37L21.09 27.48L21.05 27.44Q21.05 28.06 21.18 29.40L21.20 29.43L21.20 29.42Q21.96 29.46 22.68 29.54L22.62 29.47L22.53 29.39Q22.74 29.95 22.92 30.88L22.96 30.92L22.98 30.94Q24.09 30.92 26.13 31.54L26.17 31.58L26.33 31.73Q25.46 30.09 24.84 27.87L24.87 27.90L25.82 28.18L25.84 28.19Q26.34 28.39 26.81 28.63L26.77 28.58L26.80 28.62Q26.32 26.98 26.22 25.84L26.24 25.86L26.19 25.81Q25.77 25.67 25.00 25.52L25.04 25.56L25.07 25.60Q24.87 24.67 24.87 24.08ZM19.42 23.95L19.48 24.00L19.43 23.96Q20.02 23.15 21.08 21.42L20.97 21.32L20.95 21.29Q21.00 21.99 20.98 22.64L20.93 22.60L21.06 22.72Q20.92 23.25 20.95 23.90L20.99 23.94L20.95 23.91Q20.67 23.98 20.28 23.98L20.33 24.03L20.17 23.87Q19.94 24.05 19.53 24.05Z"/></svg>