<?xml version="1.0" encoding="UTF-8"?>
<svg width="16px" height="16px" viewBox="0 0 16 16" version="1.1" xmlns="http://www.w3.org/2000/svg" xmlns:xlink="http://www.w3.org/1999/xlink">
    <title>画板</title>
    <g id="画板" stroke="none" stroke-width="1" fill="none" fill-rule="evenodd">
        <path d="M7,9 L7,16 L0,16 L0,9 L7,9 Z M15,9 L15,16 L8,16 L8,9 L15,9 Z M5,11 L2,11 L2,14 L5,14 L5,11 Z M13,11 L10,11 L10,14 L13,14 L13,11 Z M7,1 L7,8 L0,8 L0,1 L7,1 Z M15,1 L15,8 L8,8 L8,1 L15,1 Z M5,3 L2,3 L2,6 L5,6 L5,3 Z M13,3 L10,3 L10,6 L13,6 L13,3 Z" id="形状结合" fill="#0052D9" fill-rule="nonzero"></path>
    </g>
</svg>